HIERARCHY
ROOT Hips
{
 OFFSET 0.000000 0.000000 0.000000
 CHANNELS 6 Xposition Yposition Zposition Yrotation Xrotation Zrotation
 JOINT Chest
 {
  OFFSET 0.000000 9.585900 0.002600
  CHANNELS 3 Yrotation Xrotation Zrotation
  JOINT Chest2
  {
   OFFSET 0.000000 9.601200 -0.005300
   CHANNELS 3 Yrotation Xrotation Zrotation
   JOINT Chest3
   {
    OFFSET 0.000000 9.561800 0.000000
    CHANNELS 3 Yrotation Xrotation Zrotation
    JOINT Chest4
    {
     OFFSET 0.000000 9.552100 0.000000
     CHANNELS 3 Yrotation Xrotation Zrotation
     JOINT Neck
     {
      OFFSET 0.000000 14.453000 0.000000
      CHANNELS 3 Yrotation Xrotation Zrotation
      JOINT Head
      {
       OFFSET 0.000000 8.936500 -0.011300
       CHANNELS 3 Yrotation Xrotation Zrotation
       End Site
       {
        OFFSET 0.000000 17.073600 -0.006000
       }
      }
     }
     JOINT RightCollar
     {
      OFFSET -2.921100 9.558500 0.000000
      CHANNELS 3 Yrotation Xrotation Zrotation
      JOINT RightShoulder
      {
       OFFSET -13.519700 0.000000 0.000000
       CHANNELS 3 Yrotation Xrotation Zrotation
       JOINT RightElbow
       {
        OFFSET 0.000000 -29.696600 0.000000
        CHANNELS 3 Yrotation Xrotation Zrotation
        JOINT RightWrist
        {
         OFFSET 0.000000 -24.004700 0.000000
         CHANNELS 3 Yrotation Xrotation Zrotation
         End Site
         {
          OFFSET 0.000000 -17.728500 0.000000
         }
        }
       }
      }
     }
     JOINT LeftCollar
     {
      OFFSET 2.921100 9.558500 0.000000
      CHANNELS 3 Yrotation Xrotation Zrotation
      JOINT LeftShoulder
      {
       OFFSET 13.519700 0.000000 0.000000
       CHANNELS 3 Yrotation Xrotation Zrotation
       JOINT LeftElbow
       {
        OFFSET 0.000000 -29.696600 0.000000
        CHANNELS 3 Yrotation Xrotation Zrotation
        JOINT LeftWrist
        {
         OFFSET 0.000000 -24.004700 0.000000
         CHANNELS 3 Yrotation Xrotation Zrotation
         End Site
         {
          OFFSET 0.000000 -17.728500 0.000000
         }
        }
       }
      }
     }
    }
   }
  }
 }
 JOINT RightHip
 {
  OFFSET -7.771700 -0.012900 -0.001300
  CHANNELS 3 Yrotation Xrotation Zrotation
  JOINT RightKnee
  {
   OFFSET 0.000000 -40.869800 0.001200
   CHANNELS 3 Yrotation Xrotation Zrotation
   JOINT RightAnkle
   {
    OFFSET 0.000000 -39.717900 0.002100
    CHANNELS 3 Yrotation Xrotation Zrotation
    JOINT RightToe
    {
     OFFSET 0.000000 -4.965400 11.033500
     CHANNELS 3 Yrotation Xrotation Zrotation
     End Site
     {
      OFFSET 0.000000 -1.423100 5.872300
     }
    }
   }
  }
 }
 JOINT LeftHip
 {
  OFFSET 7.771700 -0.012900 -0.001300
  CHANNELS 3 Yrotation Xrotation Zrotation
  JOINT LeftKnee
  {
   OFFSET 0.000000 -40.869800 0.001200
   CHANNELS 3 Yrotation Xrotation Zrotation
   JOINT LeftAnkle
   {
    OFFSET 0.000000 -39.717900 0.002100
    CHANNELS 3 Yrotation Xrotation Zrotation
    JOINT LeftToe
    {
     OFFSET 0.000000 -4.965400 11.033500
     CHANNELS 3 Yrotation Xrotation Zrotation
     End Site
     {
      OFFSET 0.000000 -1.423100 5.872300
     }
    }
   }
  }
 }
}
MOTION
Frames: 12
Frame Time: 0.008333
0.000000 85.388000 0.000000 0.000000 -5.767877 0.000000 0.000000 11.653817 0.000000 0.000000 -5.885947 0.000000 0.000000 -0.000000 0.000000 0.000000 -0.000000 0.000000 0.000000 12.528835 0.000000 0.000000 0.711642 0.000000 0.000000 -0.000000 0.000000 0.000000 0.000000 -90.000000 0.000000 -2.309062 0.000000 0.000000 2.309062 0.000000 0.000000 -0.000000 0.000000 0.000000 -0.000000 90.000000 0.000000 -2.309062 0.000000 0.000000 2.309062 0.000000 0.000000 8.520406 0.000000 0.000000 1.905762 0.000000 -0.000000 -4.658285 0.000000 0.000000 -0.000000 0.000000 0.000000 8.520406 0.000000 0.000000 1.905762 0.000000 -0.000000 -4.658285 0.000000 0.000000 -0.000000 0.000000
-58.347175 57.765539 11.471616 179.984847 -50.391624 -3.621759 3.226050 20.982698 2.445791 1.683162 11.996869 1.271512 2.144705 14.929725 1.632393 1.683085 11.996287 1.271563 2.397458 19.141007 4.296345 2.945999 -0.291729 7.154871 6.722492 2.866683 2.495303 -5.004806 -27.685434 -10.841669 -27.954179 -32.001372 69.372798 -4.457259 -0.554230 -33.997525 -8.819887 -2.158915 -2.570786 -4.435509 -22.479992 10.631540 14.651280 -29.232559 -54.218531 1.517838 -3.410343 21.310140 5.665484 -20.783864 -3.250905 -33.690680 74.997376 -38.391759 6.290670 -16.626804 13.065717 -0.004098 -0.013619 0.005646 -7.179744 -18.872930 4.427071 87.241844 81.488001 86.729306 0.254678 -21.707631 -18.108863 0.042208 0.085259 0.019034
-58.345270 57.769339 11.479476 179.992101 -50.450197 -3.652855 3.227560 20.948692 2.449069 1.679978 11.994643 1.268888 2.143838 14.945130 1.635973 1.675860 11.976036 1.261993 2.367733 19.199525 4.337556 2.949956 -0.174437 7.204098 6.875621 2.809561 2.584364 -5.046188 -28.119214 -10.894049 -28.334739 -32.083016 68.675764 -4.528033 -0.527606 -34.776187 -8.770256 -2.141883 -2.585979 -4.486817 -22.488290 10.632858 14.582832 -29.244147 -54.103118 1.474771 -3.404407 21.248264 5.648927 -20.722304 -3.226659 -33.633511 74.970872 -38.312965 6.306406 -16.611756 13.045516 0.002377 -0.013957 0.004858 -7.198816 -18.815069 4.452716 87.232175 81.483649 86.705349 0.254582 -21.697188 -18.106714 0.033667 0.083592 0.018048
-58.345737 57.773963 11.488164 -179.985143 -50.519428 -3.682398 3.219865 20.980820 2.455703 1.670093 11.933923 1.250758 2.143998 14.959285 1.639699 1.671793 11.972566 1.259604 2.351773 19.249478 4.368789 2.943048 -0.062955 7.257258 7.018232 2.740737 2.642051 -4.953171 -28.527837 -10.963464 -28.801425 -32.243864 67.902651 -4.624814 -0.437506 -35.471652 -8.719596 -2.139506 -2.604938 -4.536505 -22.495699 10.630090 14.516673 -29.240754 -53.992282 1.427116 -3.399830 21.190144 5.625515 -20.642018 -3.215849 -33.553162 74.952429 -38.222857 6.316064 -16.615426 13.038691 -0.008161 -0.021213 0.000275 -7.217661 -18.748595 4.462679 87.224033 81.480205 86.684155 0.252673 -21.687289 -18.103361 0.030196 0.081629 0.018924
-58.347448 57.777425 11.498874 -179.969082 -50.582929 -3.699208 3.215441 21.006810 2.456839 1.664670 11.886481 1.239043 2.138618 14.952991 1.636640 1.667593 11.967533 1.257316 2.349144 19.308804 4.399561 2.938290 0.029005 7.297299 7.153942 2.679112 2.683027 -4.713134 -28.905047 -11.077621 -29.381679 -32.429245 67.091797 -4.749139 -0.313548 -36.060496 -8.685689 -2.085290 -2.610413 -4.564541 -22.552519 10.613637 14.447284 -29.220525 -53.881039 1.379201 -3.397330 21.133453 5.614976 -20.573895 -3.209520 -33.505144 74.936026 -38.162156 6.303509 -16.619150 13.041953 0.004213 -0.010207 -0.006560 -7.230951 -18.688510 4.465615 87.161387 81.476982 86.604697 0.250279 -21.671231 -18.095702 0.025312 0.079502 0.018810
-58.348585 57.781281 11.509922 -179.946881 -50.650257 -3.723742 3.206238 20.994379 2.451102 1.665238 11.875222 1.239194 2.133959 14.944772 1.633517 1.671360 12.015347 1.269460 2.337225 19.318427 4.415847 2.949812 0.089294 7.305942 7.280490 2.571070 2.698524 -4.390969 -29.267972 -11.238662 -30.025429 -32.583318 66.277821 -4.910486 -0.220520 -36.546697 -8.635285 -2.152945 -2.636201 -4.609661 -22.537818 10.603596 14.370550 -29.185970 -53.768290 1.334467 -3.399345 21.078798 5.601869 -20.502239 -3.201889 -33.457622 74.919717 -38.101225 6.311752 -16.613437 13.039252 0.001313 -0.005827 -0.012126 -7.250209 -18.625802 4.475111 87.116479 81.477528 86.542267 0.242143 -21.653580 -18.085919 0.026085 0.073490 0.017370
-58.351751 57.781261 11.524108 -179.922210 -50.688254 -3.737702 3.195101 20.882296 2.428164 1.661792 11.931281 1.248933 2.129906 14.934664 1.630524 1.664058 11.980954 1.260318 2.343595 19.412825 4.456968 2.935841 0.207793 7.366039 7.418816 2.542699 2.744429 -4.099269 -29.651766 -11.411828 -30.631284 -32.656737 65.479323 -5.101856 -0.198163 -36.942442 -8.575059 -2.137001 -2.655942 -4.650397 -22.522129 10.590012 14.298465 -29.114914 -53.680083 1.263279 -3.412526 21.045291 5.592912 -20.458625 -3.212917 -33.412291 74.907378 -38.044030 6.327202 -16.618416 13.036925 -0.016939 0.003816 -0.017397 -7.288113 -18.596924 4.490519 87.063318 81.473079 86.438809 0.225064 -21.629699 -18.063072 0.023143 0.070056 0.014582
-58.355216 57.782564 11.536919 -179.904524 -50.736561 -3.744648 3.190153 20.821943 2.414725 1.657942 11.943252 1.251434 2.126098 14.922707 1.628756 1.657981 11.943144 1.251474 2.355007 19.536376 4.493856 2.919112 0.312901 7.430844 7.557171 2.512254 2.790096 -3.934768 -30.088396 -11.560426 -31.130102 -32.603320 64.710359 -5.287075 -0.251300 -37.259355 -8.524524 -2.095058 -2.677186 -4.682187 -22.530108 10.572932 14.221593 -29.037135 -53.591588 1.195553 -3.428673 21.014865 5.589927 -20.404578 -3.223255 -33.375898 74.900952 -37.999679 6.335491 -16.630928 13.040507 0.011148 0.007766 -0.017379 -7.300493 -18.553434 4.485674 87.017152 81.469753 86.372377 0.215159 -21.619414 -18.051373 0.024349 0.071124 0.013695
-58.356946 57.786945 11.546826 -179.885761 -50.807507 -3.763562 3.189630 20.803127 2.419687 1.654934 11.931971 1.251310 2.122307 14.908610 1.628454 1.655005 11.931894 1.251338 2.359261 19.640506 4.518327 2.913927 0.508296 7.544131 7.693547 2.445489 2.821799 -3.926782 -30.594935 -11.678109 -31.515345 -32.394841 63.977186 -5.438530 -0.370453 -37.518393 -8.477336 -2.081304 -2.710496 -4.718437 -22.535118 10.557346 14.134920 -28.977675 -53.470612 1.159148 -3.438899 20.965489 5.581899 -20.328436 -3.217071 -33.323118 74.887833 -37.931829 6.327694 -16.626372 13.036583 0.028315 0.007334 -0.014846 -7.308750 -18.482994 4.483490 86.978057 81.466828 86.324570 0.216943 -21.613959 -18.052077 0.016242 0.073619 0.015910
-58.358612 57.790859 11.556387 -179.865699 -50.874363 -3.784909 3.190659 20.778693 2.426204 1.652106 11.918839 1.251951 2.118721 14.892259 1.629004 1.652163 11.918834 1.251939 2.361565 19.726150 4.552100 2.923508 0.700650 7.616070 7.832842 2.363098 2.852822 -4.026863 -31.160000 -11.780732 -31.828836 -32.045892 63.268734 -5.558204 -0.539807 -37.737537 -8.436260 -2.064896 -2.746547 -4.759327 -22.540008 10.544355 14.052420 -28.908615 -53.342902 1.165413 -3.440108 20.918760 5.570294 -20.259347 -3.205475 -33.294412 74.875937 -37.897248 6.323026 -16.615468 13.034624 0.023544 -0.002961 -0.011005 -7.325702 -18.421357 4.490763 86.988827 81.468931 86.320370 0.203106 -21.605043 -18.044780 0.016960 0.067862 0.015440
-58.361926 57.795123 11.564609 -179.836310 -50.944390 -3.804631 3.184890 20.757078 2.421519 1.646345 11.958263 1.258750 2.117982 14.819247 1.621152 1.649787 11.903777 1.252885 2.368783 19.778782 4.597201 2.926577 0.921800 7.666426 7.974252 2.266549 2.883725 -4.140592 -31.753605 -11.897611 -32.151250 -31.587787 62.574177 -5.658581 -0.742495 -37.930515 -8.402942 -2.043920 -2.782011 -4.804720 -22.545136 10.536331 13.944380 -28.869049 -53.139551 1.221217 -3.442552 20.816959 5.560375 -20.179938 -3.209736 -33.243407 74.863412 -37.832113 6.318708 -16.610311 13.029381 0.017874 -0.007358 -0.007704 -7.340126 -18.354310 4.485277 86.951753 81.469870 86.264398 0.206123 -21.593823 -18.036205 0.008781 0.068318 0.016295
-58.362862 57.802502 11.569451 -179.790972 -51.038027 -3.851698 3.178063 20.756611 2.433355 1.645503 11.914428 1.256361 2.114197 14.824338 1.626756 1.647478 11.886655 1.253745 2.376444 19.904473 4.629173 2.936841 1.090491 7.727444 8.115527 2.162677 2.912918 -4.191660 -32.352442 -12.060271 -32.543823 -31.036065 61.896859 -5.751175 -0.975196 -38.117189 -8.375066 -2.018302 -2.818148 -4.853520 -22.546063 10.532869 13.864072 -28.791019 -52.991267 1.115642 -3.476026 20.770532 5.535583 -20.079224 -3.194082 -33.187243 74.853003 -37.762536 6.317006 -16.605311 13.028363 0.027558 -0.011911 -0.008752 -7.365823 -18.263167 4.497571 86.931132 81.480610 86.227245 0.216665 -21.575778 -18.034035 -0.004603 0.062780 0.022719
